# Blender 4.0.2
# www.blender.org
mtllib collection-2312.mtl
o 2312
v 1.155005 1.484996 -0.165066
v 1.154995 -1.485004 -0.165066
v 1.155005 1.484996 -0.385066
v 1.154995 -1.485004 -0.385066
v -1.154995 1.485004 -0.165066
v -1.155005 -1.484996 -0.165066
v -1.154995 1.485004 -0.385066
v -1.155005 -1.484996 -0.385066
vn -0.0000 -0.0000 1.0000
vn -1.0000 -0.0000 -0.0000
vn -0.0000 -0.0000 -1.0000
vn -0.0000 1.0000 -0.0000
vn -0.0000 -1.0000 -0.0000
vn 1.0000 -0.0000 -0.0000
vt 0.000100 0.996923
vt 0.000100 -0.001499
vt 0.999900 -0.001499
vt 0.999900 0.996923
vt 0.999923 0.001642
vt 0.999922 0.997783
vt 0.000077 0.997783
vt 0.000077 0.001642
vt 0.000100 0.997437
vt 0.000100 0.000843
vt 0.999900 0.000843
vt 0.999900 0.997437
vt 0.125000 0.500000
vt 0.375000 0.500000
vt 0.375000 0.750000
vt 0.125000 0.750000
vt 0.625000 0.500000
vt 0.875000 0.500000
vt 0.875000 0.750000
vt 0.625000 0.750000
vt 0.000077 0.996841
vt 0.000077 -0.002505
vt 0.999923 -0.002504
vt 0.999923 0.996841
s 0
usemtl 책등2312
f 7/5/2 8/6/2 6/7/2 5/8/2
f 3/13/4 7/14/4 5/15/4 1/16/4
f 8/17/5 4/18/5 2/19/5 6/20/5
usemtl 종이
f 1/21/6 2/22/6 4/23/6 3/24/6
usemtl 커버2312
f 5/1/1 6/2/1 2/3/1 1/4/1
usemtl 뒷커버2312
f 3/9/3 4/10/3 8/11/3 7/12/3
